<mxfile host="app.diagrams.net" modified="2024-03-08T22:21:47.953Z" agent="Mozilla/5.0 (Windows NT 10.0; Win64; x64) AppleWebKit/537.36 (KHTML, like Gecko) Chrome/122.0.0.0 Safari/537.36" etag="6tBQolbQIoocDxW-Ooy-" version="24.0.2" type="github">
  <diagram id="R2lEEEUBdFMjLlhIrx00" name="Page-1">
    <mxGraphModel dx="2537" dy="922" grid="1" gridSize="10" guides="1" tooltips="1" connect="1" arrows="1" fold="1" page="1" pageScale="1" pageWidth="850" pageHeight="1100" math="0" shadow="0" extFonts="Permanent Marker^https://fonts.googleapis.com/css?family=Permanent+Marker">
      <root>
        <mxCell id="0" />
        <mxCell id="1" parent="0" />
        <mxCell id="FklS4HpheCI_xjmBAohD-108" value="" style="edgeStyle=none;rounded=0;orthogonalLoop=1;jettySize=auto;html=1;" edge="1" parent="1" source="FklS4HpheCI_xjmBAohD-81" target="FklS4HpheCI_xjmBAohD-83">
          <mxGeometry relative="1" as="geometry" />
        </mxCell>
        <mxCell id="FklS4HpheCI_xjmBAohD-109" value="" style="edgeStyle=none;rounded=0;orthogonalLoop=1;jettySize=auto;html=1;" edge="1" parent="1" source="FklS4HpheCI_xjmBAohD-81" target="FklS4HpheCI_xjmBAohD-85">
          <mxGeometry relative="1" as="geometry" />
        </mxCell>
        <mxCell id="FklS4HpheCI_xjmBAohD-81" value="Company" style="whiteSpace=wrap;html=1;align=center;" vertex="1" parent="1">
          <mxGeometry x="560" y="400" width="100" height="40" as="geometry" />
        </mxCell>
        <mxCell id="FklS4HpheCI_xjmBAohD-83" value="name" style="ellipse;whiteSpace=wrap;html=1;align=center;fontStyle=4;" vertex="1" parent="1">
          <mxGeometry x="430" y="400" width="100" height="40" as="geometry" />
        </mxCell>
        <mxCell id="FklS4HpheCI_xjmBAohD-85" value="Address" style="ellipse;whiteSpace=wrap;html=1;align=center;" vertex="1" parent="1">
          <mxGeometry x="690" y="400" width="100" height="40" as="geometry" />
        </mxCell>
        <mxCell id="FklS4HpheCI_xjmBAohD-96" style="rounded=0;orthogonalLoop=1;jettySize=auto;html=1;exitX=0.5;exitY=1;exitDx=0;exitDy=0;entryX=0.5;entryY=0;entryDx=0;entryDy=0;" edge="1" parent="1" source="FklS4HpheCI_xjmBAohD-89" target="FklS4HpheCI_xjmBAohD-94">
          <mxGeometry relative="1" as="geometry" />
        </mxCell>
        <mxCell id="FklS4HpheCI_xjmBAohD-106" value="" style="edgeStyle=none;rounded=0;orthogonalLoop=1;jettySize=auto;html=1;" edge="1" parent="1" source="FklS4HpheCI_xjmBAohD-89" target="FklS4HpheCI_xjmBAohD-92">
          <mxGeometry relative="1" as="geometry" />
        </mxCell>
        <mxCell id="FklS4HpheCI_xjmBAohD-89" value="Customer" style="whiteSpace=wrap;html=1;align=center;" vertex="1" parent="1">
          <mxGeometry x="110" y="400" width="100" height="40" as="geometry" />
        </mxCell>
        <mxCell id="FklS4HpheCI_xjmBAohD-97" value="" style="edgeStyle=none;rounded=0;orthogonalLoop=1;jettySize=auto;html=1;" edge="1" parent="1" source="FklS4HpheCI_xjmBAohD-90" target="FklS4HpheCI_xjmBAohD-89">
          <mxGeometry relative="1" as="geometry" />
        </mxCell>
        <mxCell id="FklS4HpheCI_xjmBAohD-90" value="ID" style="ellipse;whiteSpace=wrap;html=1;align=center;fontStyle=4;" vertex="1" parent="1">
          <mxGeometry x="70" y="320" width="100" height="40" as="geometry" />
        </mxCell>
        <mxCell id="FklS4HpheCI_xjmBAohD-92" value="Name" style="ellipse;whiteSpace=wrap;html=1;align=center;" vertex="1" parent="1">
          <mxGeometry x="250" y="380" width="100" height="40" as="geometry" />
        </mxCell>
        <mxCell id="FklS4HpheCI_xjmBAohD-94" value="Contact" style="ellipse;whiteSpace=wrap;html=1;align=center;" vertex="1" parent="1">
          <mxGeometry x="200" y="480" width="100" height="40" as="geometry" />
        </mxCell>
        <mxCell id="FklS4HpheCI_xjmBAohD-103" value="" style="edgeStyle=none;rounded=0;orthogonalLoop=1;jettySize=auto;html=1;" edge="1" parent="1" source="FklS4HpheCI_xjmBAohD-99" target="FklS4HpheCI_xjmBAohD-102">
          <mxGeometry relative="1" as="geometry" />
        </mxCell>
        <mxCell id="FklS4HpheCI_xjmBAohD-104" value="" style="edgeStyle=none;rounded=0;orthogonalLoop=1;jettySize=auto;html=1;" edge="1" parent="1" source="FklS4HpheCI_xjmBAohD-99" target="FklS4HpheCI_xjmBAohD-100">
          <mxGeometry relative="1" as="geometry" />
        </mxCell>
        <mxCell id="FklS4HpheCI_xjmBAohD-105" value="" style="edgeStyle=none;rounded=0;orthogonalLoop=1;jettySize=auto;html=1;" edge="1" parent="1" source="FklS4HpheCI_xjmBAohD-99" target="FklS4HpheCI_xjmBAohD-101">
          <mxGeometry relative="1" as="geometry" />
        </mxCell>
        <mxCell id="FklS4HpheCI_xjmBAohD-99" value="Garage" style="whiteSpace=wrap;html=1;align=center;" vertex="1" parent="1">
          <mxGeometry x="-190" y="400" width="100" height="40" as="geometry" />
        </mxCell>
        <mxCell id="FklS4HpheCI_xjmBAohD-100" value="GarageID" style="ellipse;whiteSpace=wrap;html=1;align=center;fontStyle=4;" vertex="1" parent="1">
          <mxGeometry x="-330" y="380" width="100" height="40" as="geometry" />
        </mxCell>
        <mxCell id="FklS4HpheCI_xjmBAohD-101" value="Address" style="ellipse;whiteSpace=wrap;html=1;align=center;" vertex="1" parent="1">
          <mxGeometry x="-170" y="290" width="100" height="40" as="geometry" />
        </mxCell>
        <mxCell id="FklS4HpheCI_xjmBAohD-102" value="Name" style="ellipse;whiteSpace=wrap;html=1;align=center;" vertex="1" parent="1">
          <mxGeometry x="-190" y="480" width="100" height="40" as="geometry" />
        </mxCell>
        <mxCell id="FklS4HpheCI_xjmBAohD-116" value="" style="edgeStyle=none;rounded=0;orthogonalLoop=1;jettySize=auto;html=1;" edge="1" parent="1" source="FklS4HpheCI_xjmBAohD-110" target="FklS4HpheCI_xjmBAohD-111">
          <mxGeometry relative="1" as="geometry" />
        </mxCell>
        <mxCell id="FklS4HpheCI_xjmBAohD-118" value="" style="edgeStyle=none;rounded=0;orthogonalLoop=1;jettySize=auto;html=1;" edge="1" parent="1" source="FklS4HpheCI_xjmBAohD-110" target="FklS4HpheCI_xjmBAohD-117">
          <mxGeometry relative="1" as="geometry" />
        </mxCell>
        <mxCell id="FklS4HpheCI_xjmBAohD-120" value="" style="edgeStyle=none;rounded=0;orthogonalLoop=1;jettySize=auto;html=1;" edge="1" parent="1" source="FklS4HpheCI_xjmBAohD-110" target="FklS4HpheCI_xjmBAohD-119">
          <mxGeometry relative="1" as="geometry" />
        </mxCell>
        <mxCell id="FklS4HpheCI_xjmBAohD-110" value="Space" style="whiteSpace=wrap;html=1;align=center;" vertex="1" parent="1">
          <mxGeometry x="-560" y="400" width="100" height="40" as="geometry" />
        </mxCell>
        <mxCell id="FklS4HpheCI_xjmBAohD-111" value="Number, GarageID" style="ellipse;whiteSpace=wrap;html=1;align=center;fontStyle=4;" vertex="1" parent="1">
          <mxGeometry x="-660" y="320" width="100" height="40" as="geometry" />
        </mxCell>
        <mxCell id="FklS4HpheCI_xjmBAohD-117" value="Size" style="ellipse;whiteSpace=wrap;html=1;align=center;" vertex="1" parent="1">
          <mxGeometry x="-500" y="310" width="100" height="40" as="geometry" />
        </mxCell>
        <mxCell id="FklS4HpheCI_xjmBAohD-119" value="Type" style="ellipse;whiteSpace=wrap;html=1;align=center;" vertex="1" parent="1">
          <mxGeometry x="-640" y="490" width="100" height="40" as="geometry" />
        </mxCell>
        <mxCell id="FklS4HpheCI_xjmBAohD-124" value="" style="edgeStyle=none;rounded=0;orthogonalLoop=1;jettySize=auto;html=1;" edge="1" parent="1" source="FklS4HpheCI_xjmBAohD-121" target="FklS4HpheCI_xjmBAohD-123">
          <mxGeometry relative="1" as="geometry" />
        </mxCell>
        <mxCell id="FklS4HpheCI_xjmBAohD-126" value="" style="edgeStyle=none;rounded=0;orthogonalLoop=1;jettySize=auto;html=1;" edge="1" parent="1" source="FklS4HpheCI_xjmBAohD-121" target="FklS4HpheCI_xjmBAohD-125">
          <mxGeometry relative="1" as="geometry" />
        </mxCell>
        <mxCell id="FklS4HpheCI_xjmBAohD-121" value="Staff" style="whiteSpace=wrap;html=1;align=center;" vertex="1" parent="1">
          <mxGeometry x="40" y="120" width="100" height="40" as="geometry" />
        </mxCell>
        <mxCell id="FklS4HpheCI_xjmBAohD-123" value="SSN" style="ellipse;whiteSpace=wrap;html=1;align=center;fontStyle=4;" vertex="1" parent="1">
          <mxGeometry x="-100" y="120" width="100" height="40" as="geometry" />
        </mxCell>
        <mxCell id="FklS4HpheCI_xjmBAohD-125" value="Name" style="ellipse;whiteSpace=wrap;html=1;align=center;" vertex="1" parent="1">
          <mxGeometry x="190" y="190" width="100" height="40" as="geometry" />
        </mxCell>
      </root>
    </mxGraphModel>
  </diagram>
</mxfile>
